<svg xmlns="http://www.w3.org/2000/svg" viewBox="0 0 512 512">
  <title>KS1J</title>
  <rect width="512" height="512" rx="116" fill="#0B4D3A"/>
  <polygon points="256.00,78.00 308.13,130.13 381.87,130.13 381.87,203.87 434.00,256.00 381.87,308.13 381.87,381.87 308.13,381.87 256.00,434.00 203.87,381.87 130.13,381.87 130.13,308.13 78.00,256.00 130.13,203.87 130.13,130.13 203.87,130.13" fill="#C9A24A"/>
  <polygon points="256.00,106.00 299.93,149.93 362.07,149.93 362.07,212.07 406.00,256.00 362.07,299.93 362.07,362.07 299.93,362.07 256.00,406.00 212.07,362.07 149.93,362.07 149.93,299.93 106.00,256.00 149.93,212.07 149.93,149.93 212.07,149.93" fill="none" stroke="#0B4D3A" stroke-width="6"/>
  <path d="M235.7 346V225.3H194.7V192.1Q209 192.1 218.4 190.7Q227.8 189.2 234.2 183.6Q240.5 178.1 245.4 166H276.3V346Z" fill="#0B4D3A"/>
</svg>